<?xml version="1.0"?><svg width="640" height="480.00000000000006" xmlns="http://www.w3.org/2000/svg">
 <title>Black Outline Splat</title>
 <metadata id="metadata7">image/svg+xml</metadata>
 <g>
  <title>Layer 1</title>
  <g id="layer1">
   <path fill="#ffffff" fill-rule="evenodd" stroke="#000000" stroke-width="8.999849" stroke-miterlimit="4" stroke-dashoffset="0" id="path2529" d="m130.246552,419.058899c-4.503998,-3.884338 -6.638458,-12.34137 -4.809143,-19.054321c1.820389,-6.680328 2.440025,-7.527832 21.311096,-29.150269c27.893356,-31.960052 37.828339,-49.127106 57.210938,-98.856964c0.849716,-2.180206 -3.271164,-4.904663 -7.418594,-4.904663c-5.391006,0 -9.517242,2.729431 -12.099808,8.003998c-2.913162,5.949707 -4.822235,7.166107 -12.317551,7.848083c-7.151505,0.650757 -15.670486,-1.665985 -19.070526,-5.186096c-2.40448,-2.489441 -2.396805,-3.129059 0.139984,-11.606079c2.534592,-8.469635 2.544052,-9.221344 0.1689,-13.440277c-7.058197,-12.537415 -24.482544,-14.029205 -34.478264,-2.951904c-6.723274,7.450714 -21.370537,20.243591 -29.8526,26.073181c-15.016396,10.320435 -24.831902,10.64978 -34.951862,1.172791c-3.347191,-3.134491 -4.437912,-5.264496 -4.437912,-8.666351c0,-3.919678 0.731323,-4.966339 5.58408,-7.991669c7.149292,-4.457031 17.23526,-8.260193 33.132095,-12.493073c21.644287,-5.763306 31.176765,-10.883301 36.572235,-19.64325c4.012733,-6.514893 2.146553,-14.514191 -3.897926,-16.708649c-8.880112,-3.223969 -19.332863,2.184937 -37.131065,19.213837c-16.512154,15.798462 -25.445759,19.674622 -43.888779,19.042847c-12.749519,-0.436768 -18.797098,-2.753082 -25.763458,-9.867798c-6.35286,-6.48819 -8.18836,-11.253479 -7.5507,-19.603333c0.46975,-6.151306 1.26704,-7.94046 5.30513,-11.904694c5.650691,-5.547455 15.905721,-10.219879 27.305598,-12.441162c4.653301,-0.906738 19.004181,-2.017487 32.75985,-2.535583c30.426254,-1.146057 39.792213,-2.400208 73.231308,-9.80603c16.905899,-3.744141 21.979202,-6.316071 21.979202,-11.142303c0,-2.92572 -6.147675,-7.051331 -11.658035,-7.823517c-4.047638,-0.5672 -34.687714,-2.596191 -39.228821,-2.597717c-4.135551,-0.001404 -11.472504,-4.948059 -13.03582,-8.788925c-2.251274,-5.531067 1.052231,-9.994812 8.388664,-11.33493c7.810463,-1.426697 13.590027,-0.188354 28.001984,5.999832c6.543137,2.809509 16.457352,6.05217 22.031494,7.205917c9.732742,2.014465 10.3974,2.029663 16.754639,0.38269c12.7901,-3.313538 14.33107,-9.158798 5.498093,-20.855148c-7.287811,-9.650276 -20.695526,-19.368912 -32.116867,-23.28006c-17.241791,-5.904266 -28.473877,-15.281479 -35.499649,-29.637161c-2.796921,-5.715019 -3.452362,-9.201981 -3.417526,-18.182697c0.038116,-9.84967 0.490448,-11.768353 3.982765,-16.894081c8.707611,-12.780048 25.97805,-13.135151 37.18145,-0.764481c3.591232,3.96534 4.67775,7.34478 8.762863,27.254993c5.350403,26.07708 7.397202,30.37133 19.245605,40.377296c12.267029,10.359489 23.061722,13.67865 29.74379,9.145752c4.379791,-2.9711 5.002014,-6.227982 2.344681,-12.271614c-1.313583,-2.98745 -2.773422,-8.613686 -3.244019,-12.502769c-0.74028,-6.116539 -0.232224,-8.380554 3.763412,-16.771935c7.488953,-15.727745 6.020493,-22.527534 -8.210037,-38.016033c-8.277039,-9.008751 -9.079361,-12.932619 -3.476212,-17.00102c6.974335,-5.063999 16.988586,-7.06539 20.596481,-4.11631c1.145538,0.93638 1.563278,7.58288 1.317322,20.960611c-0.398087,21.643341 -0.933502,20.006519 11.529938,35.246773c4.286194,5.241196 8.112793,16.399475 8.15036,23.766304c0.014709,2.906456 1.004456,6.026321 2.313919,7.294601c4.141754,4.011284 18.276566,5.151421 24.241989,1.955383c1.078186,-0.577621 4.89679,-4.129623 8.485779,-7.89328c3.733246,-3.914833 9.099304,-7.998444 12.540222,-9.543152c5.155121,-2.31424 7.174347,-2.634872 14.129486,-2.243622c6.76059,0.38031 9.125183,1.075691 14.168762,4.166725c4.758453,2.916306 7.277252,3.71019 11.771606,3.71019c11.90741,0 25.544342,-7.674034 25.544342,-14.374702c0,-1.630402 -2.017853,-6.083168 -4.484222,-9.895142c-6.621918,-10.234909 -6.996368,-14.142429 -2.273712,-23.72723c8.143951,-16.528389 15.438934,-21.120579 33.561462,-21.12681c15.071045,-0.005178 25.417908,4.875071 28.043915,13.22727c1.756805,5.5881 0.479858,9.737492 -6.788147,22.05658c-15.804474,26.788521 -16.782349,35.09201 -5.068268,43.038574c3.012787,2.043777 8.287018,4.286896 11.720642,4.984756c10.086182,2.049973 17.270294,-0.42337 30.976501,-10.664856c13.697174,-10.234604 20.748932,-12.691093 29.39621,-10.240105c4.563293,1.293434 5.689331,2.29528 7.67337,6.827492c1.2789,2.921387 2.325256,6.426422 2.325256,7.788979c0,10.741631 -14.55484,21.390785 -33.504395,24.513649c-4.094971,0.67485 -10.652496,2.311783 -14.572266,3.637604c-22.481567,7.604202 -12.950745,23.45993 14.144104,23.530594c12.009674,0.031342 22.402222,-2.964615 35.421631,-10.211243c23.697449,-13.190094 52.891693,-27.30349 64.532135,-31.196915c18.69165,-6.251801 44.205383,-8.648071 62.154053,-5.83754c18.518311,2.899719 25.687988,15.5653 16.147156,28.52478c-4.994751,6.784164 -6.458984,7.084885 -24.194214,4.968262c-28.44574,-3.394836 -53.265869,-1.87326 -78.033264,4.783691c-20.792358,5.588593 -43.192047,13.825653 -47.036346,17.296814c-7.920105,7.151398 -6.006683,14.696533 4.992859,19.687439c13.275665,6.023621 16.566193,8.611725 17.410583,13.693573c1.121674,6.750183 -1.455353,10.017426 -11.773468,14.927277c-13.613251,6.477844 -17.539825,12.414276 -12.530945,18.944916c3.109253,4.053955 8.128052,6.863281 17.270294,9.667328c11.962219,3.668976 20.202362,4.191223 33.785309,2.141235c16.255676,-2.4534 27.539978,-1.688416 38.676697,2.621857c18.208984,7.047424 27.856201,15.598297 34.093262,30.218567c2.163635,5.071899 2.789307,9.784027 2.749329,20.708069c-0.058472,15.966949 -1.905029,20.919983 -9.880798,26.502136c-18.070984,12.64801 -45.758728,-4.719482 -55.442444,-34.776947c-4.177795,-12.967621 -8.906738,-20.002625 -17.03833,-25.347382c-10.644073,-6.996124 -37.020477,-14.187744 -47.25766,-12.884949c-6.535217,0.831726 -16.312561,7.493835 -18.369049,12.516418c-3.46524,8.463257 -1.119293,13.711151 11.154236,24.951599c23.35022,21.384918 30.089386,30.160217 31.609558,41.159973c0.974884,7.054718 -0.825012,9.77597 -8.329407,12.592163c-7.610474,2.856079 -13.909912,3.566772 -20.669556,2.332031c-7.995026,-1.46048 -12.530334,-5.016968 -13.216522,-10.364227c-3.594635,-28.012482 -6.144958,-35.157898 -15.073273,-42.233795c-9.317383,-7.384216 -24.535675,-10.134308 -36.81723,-6.653229c-9.524048,2.699554 -11.20105,6.492371 -9.002777,20.360657c0.791534,4.993591 0.589783,7.832306 -0.670288,9.429382c-1.894958,2.401947 -9.819733,5.144531 -14.865204,5.144531c-8.097168,0 -20.208954,-12.64325 -26.843414,-28.021545c-4.046997,-9.380798 -7.971252,-12.586487 -15.408142,-12.586487c-8.437439,0 -12.49295,2.373962 -15.318298,8.966553c-3.881348,9.057526 -2.33075,17.463623 6.488953,35.177002c8.599945,17.27182 9.688324,19.051605 23.474152,38.385712c7.751984,10.871948 10.243103,15.460449 10.773041,19.843414c0.906097,7.495178 -1.686127,12.627869 -7.617004,15.081177c-8.980499,3.714752 -14.431335,2.073883 -21.554901,-6.488708c-6.921295,-8.319519 -8.996643,-14.819641 -10.590332,-33.168793c-2.264893,-26.076843 -10.035065,-48.921631 -23.228058,-68.292175c-6.433289,-9.445618 -8.839325,-11.322449 -14.515106,-11.322449c-11.838409,0 -20.893341,8.270111 -21.014221,19.192871c-0.065399,5.914032 0.548523,7.298065 6.182709,13.938812c3.440643,4.055084 7.276093,9.41214 8.52356,11.904602c2.291504,4.578827 2.821899,15.97348 0.959839,20.623474c-1.56015,3.895844 -9.486755,6.057495 -22.218933,6.059357c-13.571854,0.001923 -18.487061,-1.594818 -21.705429,-7.051147c-3.883911,-6.584839 -3.033478,-12.872864 3.538147,-26.160431c6.974518,-14.102203 7.954941,-23.807953 3.132553,-31.010803c-2.965042,-4.428528 -9.426682,-8.506866 -13.478333,-8.506866c-8.73436,0 -22.155396,19.969879 -32.084,47.739441c-5.292847,14.804077 -7.095779,21.874695 -13.326584,52.265411c-4.153793,20.260254 -6.522186,25.96701 -13.473373,32.464813c-9.757706,9.121277 -32.337433,13.360657 -39.278488,7.374756l0,0z"/>
  </g>
 </g>
</svg>